<svg xmlns="http://www.w3.org/2000/svg" xmlns:xlink="http://www.w3.org/1999/xlink" width="1080" zoomAndPan="magnify" viewBox="0 0 810 809.999993" height="1080" preserveAspectRatio="xMidYMid meet" version="1.0"><defs><g/><clipPath id="00b6210b12"><rect x="0" width="440" y="0" height="763"/></clipPath></defs><path fill="#98cbff" d="M 761.796875 239.933594 C 761.796875 226.445312 758.894531 214.527344 753.058594 204.296875 C 747.332031 194.238281 738.761719 185.808594 727.253906 179.140625 C 632.226562 124.355469 537.140625 69.738281 442.140625 14.894531 C 416.53125 0.113281 391.707031 0.652344 366.296875 15.644531 C 328.484375 37.949219 139.125 146.429688 82.6875 179.109375 C 59.464844 192.5625 48.160156 213.148438 48.152344 239.90625 C 48.117188 350.097656 48.152344 460.261719 48.117188 570.457031 C 48.125 583.636719 50.886719 595.308594 56.460938 605.390625 C 62.195312 615.75 70.894531 624.433594 82.671875 631.25 C 139.097656 663.921875 328.457031 772.382812 366.277344 794.695312 C 391.71875 809.71875 416.542969 810.246094 442.152344 795.449219 C 537.152344 740.601562 632.265625 685.980469 727.292969 631.21875 C 739.078125 624.40625 747.761719 615.722656 753.515625 605.363281 C 759.074219 595.308594 761.835938 583.609375 761.835938 570.398438 C 761.835938 570.398438 761.835938 350.125 761.808594 239.933594 " fill-opacity="1" fill-rule="nonzero"/><path fill="#98cbff" d="M 406.0625 404.101562 L 56.46875 605.386719 C 62.195312 615.746094 70.894531 624.433594 82.671875 631.246094 C 139.097656 663.917969 328.457031 772.378906 366.277344 794.691406 C 391.71875 809.714844 416.542969 810.246094 442.152344 795.445312 C 537.152344 740.601562 632.265625 685.980469 727.292969 631.21875 C 739.078125 624.402344 747.761719 615.71875 753.515625 605.359375 L 406.070312 404.101562 " fill-opacity="1" fill-rule="nonzero"/><path fill="#98cbff" d="M 302.519531 463.722656 C 322.859375 499.242188 361.101562 523.203125 404.972656 523.203125 C 449.121094 523.203125 487.574219 498.9375 507.820312 463.054688 L 406.0625 404.101562 L 302.519531 463.722656 " fill-opacity="1" fill-rule="nonzero"/><path fill="#98cbff" d="M 761.796875 239.933594 C 761.796875 226.445312 758.894531 214.527344 753.058594 204.296875 L 406.0625 404.101562 L 753.503906 605.359375 C 759.0625 595.304688 761.824219 583.605469 761.824219 570.398438 C 761.824219 570.398438 761.824219 350.125 761.796875 239.933594 " fill-opacity="1" fill-rule="nonzero"/><path fill="#ffffff" d="M 742.695312 418.484375 L 715.554688 418.484375 L 715.554688 445.628906 L 688.382812 445.628906 L 688.382812 418.484375 L 661.238281 418.484375 L 661.238281 391.339844 L 688.382812 391.339844 L 688.382812 364.199219 L 715.554688 364.199219 L 715.554688 391.339844 L 742.695312 391.339844 L 742.695312 418.484375 " fill-opacity="1" fill-rule="nonzero"/><path fill="#ffffff" d="M 643.621094 418.484375 L 616.476562 418.484375 L 616.476562 445.628906 L 589.332031 445.628906 L 589.332031 418.484375 L 562.191406 418.484375 L 562.191406 391.339844 L 589.332031 391.339844 L 589.332031 364.199219 L 616.476562 364.199219 L 616.476562 391.339844 L 643.621094 391.339844 L 643.621094 418.484375 " fill-opacity="1" fill-rule="nonzero"/><path fill="#ffffff" d="M 507.820312 463.054688 C 487.574219 498.9375 449.121094 523.203125 404.972656 523.203125 C 361.101562 523.203125 322.859375 499.242188 302.519531 463.722656 C 292.636719 446.464844 286.953125 426.5 286.953125 405.164062 C 286.953125 339.988281 339.792969 287.152344 404.972656 287.152344 C 448.5625 287.152344 486.597656 310.804688 507.039062 345.964844 L 610.191406 286.566406 C 569.199219 215.78125 492.65625 168.160156 404.972656 168.160156 C 274.074219 168.160156 167.960938 274.277344 167.960938 405.164062 C 167.960938 448.113281 179.386719 488.382812 199.351562 523.121094 C 240.25 594.273438 317.019531 642.191406 404.972656 642.191406 C 493.101562 642.191406 569.980469 594.078125 610.808594 522.730469 L 507.820312 463.054688 " fill-opacity="1" fill-rule="nonzero"/><path stroke-linecap="butt" transform="matrix(-0.649519, 0.375, -0.375, -0.649519, 675.448458, 249.273495)" fill="none" stroke-linejoin="miter" d="M 0.000193961 80.997638 L 853.690049 80.998973 " stroke="#98cbff" stroke-width="162" stroke-opacity="1" stroke-miterlimit="4"/><path stroke-linecap="butt" transform="matrix(-0.649519, 0.375, -0.375, -0.649519, 565.133351, 211.566367)" fill="none" stroke-linejoin="miter" d="M 0.00175914 80.998393 L 682.837874 80.99998 " stroke="#98cbff" stroke-width="162" stroke-opacity="1" stroke-miterlimit="4"/><path stroke-linecap="butt" transform="matrix(-0.649519, 0.375, -0.375, -0.649519, 568.220999, 159.043474)" fill="none" stroke-linejoin="miter" d="M -0.00113923 80.997558 L 682.839486 81.001748 " stroke="#98cbff" stroke-width="162" stroke-opacity="1" stroke-miterlimit="4"/><path stroke-linecap="butt" transform="matrix(-0.649519, 0.375, -0.375, -0.649519, 444.951221, 522.024186)" fill="none" stroke-linejoin="miter" d="M -0.00158618 80.997674 L 405.410624 81.001104 " stroke="#98cbff" stroke-width="162" stroke-opacity="1" stroke-miterlimit="4"/><path stroke-linecap="butt" transform="matrix(-0.649519, -0.375, 0.375, -0.649519, 594.134206, 652.671899)" fill="none" stroke-linejoin="miter" d="M 0.000513673 80.997179 L 321.358357 81.001079 " stroke="#98cbff" stroke-width="162" stroke-opacity="1" stroke-miterlimit="4"/><path stroke-linecap="butt" transform="matrix(-0.735648, -0.146021, 0.146021, -0.735648, 526.017337, 681.027634)" fill="none" stroke-linejoin="miter" d="M 0.00138643 80.998031 L 356.952556 81.001495 " stroke="#98cbff" stroke-width="162" stroke-opacity="1" stroke-miterlimit="4"/><path stroke-linecap="butt" transform="matrix(-0.75, 0, 0, -0.75, 748.53131, 475.768052)" fill="none" stroke-linejoin="miter" d="M 0.0000797899 80.998032 L 250.213634 80.998032 " stroke="#98cbff" stroke-width="162" stroke-opacity="1" stroke-miterlimit="4"/><g transform="matrix(1, 0, 0, 1, 188, 25)"><g clip-path="url(#00b6210b12)"><g fill="#21252b" fill-opacity="1"><g transform="translate(0.405414, 593.561448)"><g><path d="M 101.78125 0 C 64.5 -0.832031 45.859375 -19.472656 45.859375 -55.921875 L 45.859375 -363.15625 C 46.703125 -400.4375 65.34375 -419.078125 101.78125 -419.078125 L 194.140625 -419.078125 C 226.390625 -419.078125 253.507812 -415.722656 275.5 -409.015625 C 297.5 -402.316406 318.34375 -391.21875 338.03125 -375.71875 C 364 -354.78125 384.101562 -329.859375 398.34375 -300.953125 C 412.582031 -272.054688 419.703125 -241.269531 419.703125 -208.59375 C 419.703125 -190.582031 417.394531 -172.882812 412.78125 -155.5 C 408.175781 -138.113281 401.472656 -121.773438 392.671875 -106.484375 C 383.878906 -91.203125 373.203125 -77.066406 360.640625 -64.078125 C 348.078125 -51.097656 334.046875 -39.789062 318.546875 -30.15625 C 285.878906 -10.050781 244.410156 0 194.140625 0 Z M 182.828125 -87.328125 C 203.773438 -87.328125 220.738281 -88.6875 233.71875 -91.40625 C 246.707031 -94.132812 258.648438 -99.0625 269.546875 -106.1875 C 286.296875 -117.070312 299.488281 -131.519531 309.125 -149.53125 C 318.757812 -167.539062 323.578125 -187.226562 323.578125 -208.59375 C 323.578125 -226.601562 320.222656 -243.039062 313.515625 -257.90625 C 306.816406 -272.78125 297.285156 -285.453125 284.921875 -295.921875 C 272.566406 -306.398438 257.800781 -314.570312 240.625 -320.4375 C 223.457031 -326.300781 204.40625 -329.234375 183.46875 -329.234375 L 142 -329.234375 L 142 -87.328125 Z M 182.828125 -87.328125 "/></g></g></g></g></g><path stroke-linecap="butt" transform="matrix(0.592655, -0.459631, 0.459631, 0.592655, 266.450966, 625.877629)" fill="none" stroke-linejoin="miter" d="M 7.798739 9.121888 C 130.061039 113.650557 252.324883 113.652071 374.586155 9.123239 " stroke="#98cbff" stroke-width="24" stroke-opacity="1" stroke-miterlimit="4"/></svg>