<svg xmlns="http://www.w3.org/2000/svg" xmlns:xlink="http://www.w3.org/1999/xlink" width="581" zoomAndPan="magnify" viewBox="0 0 435.75 242.999999" height="324" preserveAspectRatio="xMidYMid meet" version="1.0"><defs><clipPath id="0614be2323"><path d="M 299 53 L 322 53 L 322 109 L 299 109 Z M 299 53 " clip-rule="nonzero"/></clipPath><clipPath id="2c73f8b3f2"><path d="M 303.179688 108.953125 C 302.839844 108.953125 302.507812 108.90625 302.164062 108.792969 C 300.347656 108.234375 299.328125 106.300781 299.890625 104.496094 L 314.863281 55.945312 C 315.320312 54.472656 316.679688 53.523438 318.15625 53.523438 C 318.488281 53.523438 318.832031 53.566406 319.171875 53.671875 C 320.992188 54.230469 322.007812 56.164062 321.449219 57.96875 L 306.472656 106.519531 C 306.015625 107.992188 304.65625 108.941406 303.179688 108.941406 Z M 303.179688 108.953125 " clip-rule="nonzero"/></clipPath><clipPath id="1e80b7b434"><path d="M 264 57 L 287 57 L 287 103 L 264 103 Z M 264 57 " clip-rule="nonzero"/></clipPath><clipPath id="296a6855e4"><path d="M 282.949219 102.574219 C 281.929688 102.574219 280.914062 102.117188 280.226562 101.246094 L 265.070312 81.816406 C 264.085938 80.546875 264.097656 78.773438 265.113281 77.527344 L 280.214844 59.042969 C 280.902344 58.210938 281.882812 57.773438 282.878906 57.773438 C 283.644531 57.773438 284.410156 58.027344 285.050781 58.550781 C 286.527344 59.753906 286.742188 61.925781 285.542969 63.386719 L 272.191406 79.746094 L 285.65625 97.007812 C 286.824219 98.503906 286.558594 100.664062 285.0625 101.84375 C 284.433594 102.332031 283.691406 102.574219 282.949219 102.574219 Z M 282.949219 102.574219 " clip-rule="nonzero"/></clipPath><clipPath id="c207137dec"><path d="M 333 57 L 356 57 L 356 103 L 333 103 Z M 333 57 " clip-rule="nonzero"/></clipPath><clipPath id="ab70d70351"><path d="M 336.960938 102.492188 C 336.230469 102.492188 335.484375 102.265625 334.855469 101.773438 C 333.347656 100.609375 333.085938 98.449219 334.238281 96.949219 L 347.660156 79.632812 L 334.25 63.320312 C 333.039062 61.855469 333.257812 59.683594 334.730469 58.472656 C 335.371094 57.945312 336.148438 57.695312 336.914062 57.695312 C 337.910156 57.695312 338.890625 58.128906 339.578125 58.953125 L 354.714844 77.390625 C 355.730469 78.636719 355.753906 80.410156 354.769531 81.6875 L 339.679688 101.15625 C 339.007812 102.035156 337.988281 102.492188 336.960938 102.492188 Z M 336.960938 102.492188 " clip-rule="nonzero"/></clipPath><clipPath id="75e4731c63"><path d="M 5 5 L 430 5 L 430 238 L 5 238 Z M 5 5 " clip-rule="nonzero"/></clipPath><clipPath id="0dd67c2ab9"><path d="M 259.925781 109.5 L 313.675781 109.421875 L 349.292969 109.363281 C 362.007812 109.339844 376.96875 103.410156 383.78125 92.46875 C 386.847656 87.566406 387.519531 82.433594 386.570312 77.503906 C 384.6875 67.789062 376.445312 58.894531 367.5625 54.140625 C 362.007812 51.15625 355.332031 48.902344 348.917969 48.6875 L 308.496094 48.753906 L 274.558594 48.8125 C 274.558594 48.8125 274.269531 48.800781 273.734375 48.800781 C 268.019531 48.800781 234.203125 49.980469 229.070312 77.664062 C 229.070312 77.664062 223.984375 103.226562 259.925781 109.511719 Z M 252.390625 43.554688 C 254.769531 43.542969 256.691406 41.621094 256.691406 39.246094 C 256.691406 36.867188 254.757812 34.945312 252.378906 34.945312 C 252.378906 34.945312 252.378906 34.945312 252.367188 34.945312 C 249.992188 34.945312 248.070312 36.878906 248.070312 39.257812 C 248.070312 41.632812 250.003906 43.554688 252.367188 43.554688 Z M 367.058594 43.371094 C 369.4375 43.371094 371.355469 41.441406 371.355469 39.0625 C 371.355469 36.683594 369.425781 34.761719 367.058594 34.761719 C 367.058594 34.761719 367.058594 34.761719 367.046875 34.761719 C 364.667969 34.761719 362.738281 36.695312 362.75 39.074219 C 362.761719 41.449219 364.679688 43.371094 367.058594 43.371094 Z M 234.089844 237.085938 C 231.003906 237.085938 227.3125 236.675781 223.070312 235.75 C 216.726562 224.339844 210.703125 210.222656 209 177.964844 C 204.757812 181.039062 204.289062 182.777344 194.457031 192.59375 C 172.578125 220.066406 138.410156 229.324219 138.398438 229.324219 C 128.84375 230.878906 119.539062 231.875 110.449219 231.875 C 93.347656 231.875 76.992188 228.363281 61.042969 218.511719 C 39.734375 205.339844 22.464844 182.683594 13.582031 159.523438 C 10.472656 151.410156 8.492188 142.871094 7.097656 134.328125 C 1.691406 101.203125 12.460938 68.921875 36.078125 44.582031 C 59.433594 20.484375 90.34375 5.785156 123.183594 5.785156 C 132.101562 5.785156 141.164062 6.871094 150.253906 9.144531 C 159.339844 11.421875 169.949219 13.648438 175.550781 21.730469 C 180.273438 28.535156 175.300781 38.890625 167.136719 38.890625 C 166.28125 38.890625 165.386719 38.777344 164.472656 38.535156 C 150.023438 34.683594 135.722656 31.804688 121.789062 31.804688 C 105.546875 31.804688 89.792969 35.722656 74.839844 46.605469 C 59.144531 58.027344 46.023438 71.011719 39.164062 89.4375 C 34.304688 102.503906 33.367188 116.601562 35.757812 130.261719 C 41.371094 162.449219 63.992188 192.984375 97.269531 200.699219 C 101.820312 201.75 106.355469 202.242188 110.828125 202.242188 C 131.90625 202.242188 151.761719 191.316406 167.230469 176.96875 C 175.046875 169.722656 180.796875 161.9375 188.046875 154.152344 C 190.273438 151.761719 201.75 142.664062 208.894531 139.0625 C 208.929688 137.964844 208.964844 136.890625 209.011719 135.757812 C 209.011719 135.757812 209.660156 119.675781 210.40625 114.015625 L 210.394531 109.433594 C 205.476562 104.242188 202.675781 97.726562 201.375 90.765625 C 200.835938 91.613281 200.324219 92.492188 199.875 93.417969 C 199.589844 94.011719 199.007812 94.355469 198.390625 94.355469 C 198.152344 94.355469 197.910156 94.296875 197.683594 94.195312 C 196.859375 93.804688 196.515625 92.824219 196.90625 92 C 197.992188 89.75 199.328125 87.757812 200.722656 86.011719 C 200.355469 82.066406 200.414062 78.054688 200.78125 74.109375 C 199.042969 75.117188 197.316406 76.339844 195.828125 77.847656 C 195.511719 78.179688 195.074219 78.339844 194.652344 78.339844 C 194.242188 78.339844 193.816406 78.179688 193.496094 77.871094 C 192.847656 77.230469 192.835938 76.191406 193.476562 75.539062 C 195.820312 73.136719 198.652344 71.367188 201.257812 70.0625 C 201.726562 66.875 202.378906 63.765625 203.167969 60.816406 C 200.527344 61.421875 198.023438 62.210938 196.800781 63.136719 C 196.503906 63.363281 196.148438 63.46875 195.808594 63.46875 C 195.304688 63.46875 194.8125 63.238281 194.492188 62.816406 C 193.945312 62.097656 194.082031 61.054688 194.8125 60.507812 C 196.824219 58.976562 200.746094 57.910156 204.230469 57.203125 C 205.453125 53.351562 206.882812 49.851562 208.359375 46.949219 C 205.570312 33.3125 202.1875 11.285156 206.128906 8.941406 C 207.339844 8.164062 208.871094 7.832031 210.609375 7.832031 C 220.714844 7.832031 237.621094 19.023438 237.621094 19.023438 C 237.621094 19.023438 249.738281 7.113281 304.609375 6.835938 L 314.773438 6.8125 C 369.640625 6.929688 381.792969 18.792969 381.792969 18.792969 C 381.792969 18.792969 398.710938 7.523438 408.816406 7.523438 C 410.53125 7.523438 412.050781 7.855469 413.265625 8.609375 C 417.21875 10.941406 413.894531 32.980469 411.148438 46.628906 C 412.601562 49.453125 413.996094 52.835938 415.195312 56.574219 C 418.832031 57.285156 423.09375 58.460938 425.277344 60.300781 C 425.976562 60.882812 426.066406 61.925781 425.484375 62.621094 C 425.164062 63.011719 424.695312 63.203125 424.226562 63.214844 C 423.851562 63.214844 423.472656 63.089844 423.164062 62.828125 C 421.828125 61.707031 419.09375 60.828125 416.28125 60.1875 C 417.105469 63.203125 417.800781 66.394531 418.292969 69.664062 C 418.269531 69.457031 418.269531 69.25 418.261719 69.058594 C 420.855469 70.40625 424.273438 72.453125 428.558594 75.574219 C 429.300781 76.109375 429.460938 77.140625 428.925781 77.882812 C 428.605469 78.328125 428.101562 78.566406 427.585938 78.566406 C 427.257812 78.566406 426.914062 78.464844 426.617188 78.25 C 423.472656 75.972656 420.867188 74.316406 418.730469 73.082031 C 419.195312 77.515625 419.277344 82.042969 418.808594 86.457031 C 419.527344 87.507812 420.191406 88.582031 420.71875 89.644531 C 421.128906 90.457031 420.796875 91.453125 419.984375 91.863281 C 419.746094 91.976562 419.496094 92.035156 419.253906 92.035156 C 419.253906 92.035156 419.253906 92.035156 419.242188 92.035156 C 418.785156 92.035156 418.339844 91.828125 418.019531 91.484375 C 416.589844 98.355469 413.652344 104.746094 408.601562 109.796875 L 408.691406 109.753906 C 408.703125 109.742188 408.726562 109.730469 408.738281 109.730469 C 409.664062 109.730469 411.265625 135.449219 411.265625 135.449219 C 414.03125 199.488281 406.0625 219.972656 397.511719 235.484375 C 393.226562 236.433594 389.5 236.855469 386.390625 236.855469 C 381.769531 236.855469 378.511719 235.917969 376.777344 234.34375 C 382.914062 184.332031 377.574219 179.359375 374.914062 174.097656 C 372.546875 170.5 361.777344 168.714844 349.660156 167.871094 L 349.660156 167.882812 L 275.003906 167.996094 L 275.003906 167.722656 C 261.226562 168.476562 248.082031 170.269531 245.453125 174.304688 C 242.800781 179.574219 237.472656 184.546875 243.773438 234.546875 C 242.035156 236.136719 238.742188 237.085938 234.066406 237.085938 Z M 234.089844 237.085938 " clip-rule="nonzero"/></clipPath></defs><g clip-path="url(#0614be2323)"><g clip-path="url(#2c73f8b3f2)"><path fill="#98cbff" d="M 322.679688 53.53125 L 299.332031 53.246094 L 298.65625 108.945312 L 322.003906 109.226562 Z M 322.679688 53.53125 " fill-opacity="1" fill-rule="nonzero"/></g></g><g clip-path="url(#1e80b7b434)"><g clip-path="url(#296a6855e4)"><path fill="#98cbff" d="M 287.367188 57.78125 L 264.089844 57.5 L 263.542969 102.566406 L 286.820312 102.847656 Z M 287.367188 57.78125 " fill-opacity="1" fill-rule="nonzero"/></g></g><g clip-path="url(#c207137dec)"><g clip-path="url(#ab70d70351)"><path fill="#98cbff" d="M 356.296875 57.703125 L 333.042969 57.417969 L 332.496094 102.488281 L 355.75 102.769531 Z M 356.296875 57.703125 " fill-opacity="1" fill-rule="nonzero"/></g></g><g clip-path="url(#75e4731c63)"><g clip-path="url(#0dd67c2ab9)"><path fill="#98cbff" d="M 432.265625 5.820312 L 1.753906 0.601562 L -1.109375 237.050781 L 429.398438 242.269531 Z M 432.265625 5.820312 " fill-opacity="1" fill-rule="nonzero"/></g></g></svg>